<?xml version="1.0" encoding="utf-8"?>
<!-- Generator: Adobe Illustrator 26.0.3, SVG Export Plug-In . SVG Version: 6.00 Build 0)  -->
<svg version="1.1" id="Слой_1" xmlns="http://www.w3.org/2000/svg" xmlns:xlink="http://www.w3.org/1999/xlink" x="0px" y="0px"
	 viewBox="0 0 1200 630" style="enable-background:new 0 0 1200 630;" xml:space="preserve">
<style type="text/css">
	.st0{fill:#FFFFF0;}
	.st1{fill:#7FEBC1;stroke:#7FEBC1;stroke-width:3;stroke-miterlimit:10;}
	.st2{fill:none;stroke:#7FEBC1;stroke-width:7;stroke-miterlimit:10;}
	.st3{fill:#EB8AB3;stroke:#000000;stroke-miterlimit:10;}
	.st4{fill:#DDFFA3;stroke:#000000;stroke-miterlimit:10;}
	.st5{fill:none;stroke:#7FEBC1;stroke-width:3;stroke-miterlimit:10;}
	.st6{fill:#7FEBC1;}
	.st7{fill:#999999;stroke:#000000;stroke-width:0.25;stroke-miterlimit:10;}
	.st8{fill:#B37669;stroke:#000000;stroke-miterlimit:10;}
</style>
<rect x="0" class="st0" width="1200" height="630"/>
<path class="st1" d="M121.1,352.5c-8.6-12.4-4.5-25.1-4.5-25.1s15.5,3.2,24.9,13.3c1.3,1.4,2.5,3,3.6,4.6
	c7.3,11.1,8.6,25.4,8.8,27.6c0,0.2,0,0.3,0,0.3S131.8,367.8,121.1,352.5z"/>
<path class="st2" d="M163,420.9c-0.1-1.1-0.2-2.7-0.2-4.7c-0.1-4.9,0.4-8.6,0.6-10.6c0.5-7.1,1.4-17.2,3.5-29.9c0.5-3,1.1-6,1.8-9.2
	c0.8-3.4,1.6-6.8,2.6-10.3c5.5-20.1,8.4-30.2,33.1-87.2l0,0"/>
<path class="st3" d="M227.4,108.2c-7,2.8-10.8,5.5-13.2,8c-2.2,2.3-3.5,4.4-4.3,5.6c-0.9,1.5-4.1,6.9-5.2,14.7
	c-1,7,0.1,12.5,0.8,15.7c0.7,3.3,1.9,7.6,2.9,10.1c0.1,0.3,0.7,1.9,1.6,4.2c0.4,1.2,0.8,2.1,1,2.8c2.8,7.6,3,8.2,3.4,9.1
	c1.2,2.6,1.2,2.2,2.5,5c1.6,3.5,2.3,5.7,4.3,8.7c2,3.1,2.7,3.1,3.1,3.1c1.8-0.1,3.2-4.5,4.1-4.3c0.4,0.1,0.5,0.6,1.6,1.2
	c0.7,0.4,0.8,0.3,1.4,0.7c0.7,0.5,0.7,0.7,1.4,1.3c1,0.8,1.7,0.8,1.7,1.1c0,0.5-2.4,0.7-2.4,1.1c0,0.1,0.3,0.1,1.1,0.5
	c3,1.3,3.3,1.4,3.6,1.5c1.8,0.7,1.8,0.5,3.1,1c1.7,0.7,2.5,1.4,3.2,1.7c0.6,0.4,2.5,1.3,8.5,0c4.9-1,8.6-2.6,10.4-3.5
	c1.8-0.8,5.6-2.7,10.2-6c3.2-2.3,10.2-7.6,16.3-17c4.8-7.5,6.7-14.2,7.2-16.1c0.8-3.1,1.9-8.2,1.8-14.3c0-5.3-0.2-18.1-8.3-27.9
	c-9.5-11.4-24.9-11.9-36.1-12.3C240.6,103.4,231.5,106.5,227.4,108.2z"/>
<path class="st3" d="M120.9,169c0.6-3.7,3.9-23.2,20.9-33c10.4-6,21.1-5.3,28.3-4.8c10.3,0.7,16.9,4,21.8,6.4
	c2.5,1.2,5.4,3.3,8.4,6.9c3.3,3.9,4.8,8,5.7,10.3c1,2.6,1,3.5,2.7,8.4c0.9,2.5,0.9,2.3,2.1,5.7c1.9,5.1,2.3,6.6,3,8.3
	c0.1,0.2,0.2,0.5,0.6,1.2c1.9,4,2.7,5.3,3.6,7.2c1.9,4.1,2.9,6.2,2.2,7.3c-1,1.6-3.8-0.2-7.5,1.2c-3,1.1-4.6,3.8-8.2,9
	c-1.8,2.6-3,4.8-3.7,6.3c-3.6,8.3-3.2,11.2-6.8,14.1c-2.1,1.7-4.4,2.2-6.6,2.6c-3.2,0.7-5.9,0.4-11.3-0.2c-1.7-0.2-1.6-0.2-5.6-0.7
	c-4.7-0.6-8-0.9-8.5-1c-3.4-0.4-17.4-3.1-26.8-10.5C121.9,203.2,118.5,183.7,120.9,169z"/>
<path class="st3" d="M122.8,240.4c-3.6,4.4-9.8,12-11.1,23.5c-1.2,11.6,3.3,20.4,4.7,23.1c6.7,12.7,20.6,23.2,36.6,23.7
	c14.9,0.5,25.2-7.6,34.6-14.9c18.4-14.4,24.5-32.6,24.2-40.3c-0.2-3.9-1.4-7.2-1.4-7.2c-0.3-1.1-0.7-2.8-0.8-4.9
	c-0.6-7.7,2.5-10.2,1-13.5c-1.2-2.7-5.2-3.7-13.1-5.9c-5-1.4-8.9-1.9-10.2-2c-2.3-0.3-4.6-0.4-12.9-0.4c-6.8,0-10.2,0-12.1,0.1
	c-5.2,0.3-12.6,0.8-20.3,3.9C131.5,230,125.3,237.3,122.8,240.4z"/>
<path class="st3" d="M196.5,302c0.6,4,3,17.9,14.7,28.6c12.5,11.4,32,15.6,48.5,8.9c16.1-6.5,22.9-21,25.8-27.3
	c2.5-5.4,10.4-22.3,3.5-39.5c-2-5.1-7.4-10.6-18.2-21.6c-5.5-5.6-11.1-10.5-18.4-10.7c-0.5,0-2,0.1-3.5,0.3c-7,0.7-7.2,1.5-10.7,1.5
	c-4.6,0.1-6-1.3-8.3,0c-1.7,0.9-2.7,2.6-3.2,3.8c-2.3,0.5-5.4,1.4-8.9,2.9c0,0-1.6,0.7-2.9,1.3c-9.4,4.7-16.2,27.7-16.2,27.7
	C197.1,282.4,194.8,291.2,196.5,302z"/>
<path class="st3" d="M250.1,239.4c2.3,4.3,5.3,5.8,14.9,12.1c15.2,9.9,13,9.6,17.4,11.7c11.6,5.3,22.3,4.9,26.2,4.7
	c7.2-0.4,20.3-1,30.9-10.4c13.5-12,15.4-31.5,12-45.5c-0.9-3.8-4.4-17.2-16.7-26.4c-22.4-16.7-53.2-3.4-56.2-2.1
	c-1.3,0.6-7.4,4.2-19.6,11.3c-8.2,4.8-10,6-11.5,8.6c-1.2,2.2-1.8,4.6,0,21.7C248.9,236.7,249.4,238,250.1,239.4z"/>
<circle class="st4" cx="224" cy="221.3" r="33"/>
<path class="st5" d="M153.6,372.7c0,0,3.1,2.3,6.5,3.7c2.7,1.1,6,1.4,6,1.4"/>
<g>
	<path class="st6" d="M500.8,291.1h-22.3v-34.3h-104V130.3h25.2v105.3h57.7V130.3h25.3v105.3h18.3V291.1z"/>
	<path class="st6" d="M522.7,256.8V130.3h44.2c13.4,0,23.8,2.6,31.4,7.8c7.5,5.2,11.3,12.4,11.3,21.7c0,6.8-2.2,12.7-6.6,17.9
		c-4.4,5.2-10.4,8.9-17.8,11.1v0.3c9.2,1.1,16.5,4.5,21.9,10c5.4,5.5,8.1,12.3,8.1,20.4c0,11.3-4.2,20.4-12.5,27.1
		c-8.4,6.8-19.5,10.1-33.6,10.1H522.7z M547.8,149.1v33.2h13.7c6.8,0,12.1-1.6,15.9-4.7c3.8-3.1,5.7-7.5,5.7-13.2
		c0-10.2-7.5-15.3-22.4-15.3H547.8z M547.8,201.2V238h17.3c7.4,0,13.2-1.7,17.3-5c4.1-3.3,6.2-7.9,6.2-13.8c0-12-8.1-18-24.4-18
		H547.8z"/>
	<path class="st6" d="M713.2,256.8h-75.2V130.3h72.3v20.4h-47.2v32.2h43.8v20.3h-43.8v33.3h50.1V256.8z"/>
	<path class="st6" d="M822.4,150.7h-37.2v106.1H760V150.7h-37.1v-20.4h99.5V150.7z"/>
	<path class="st6" d="M832.5,195.2c0-19.9,5.9-36,17.6-48.4c11.7-12.4,27.4-18.6,46.9-18.6c18.5,0,33.4,6,44.6,18
		c11.3,12,16.9,27.4,16.9,46.2c0,19.8-5.8,35.9-17.4,48.2c-11.6,12.3-27,18.4-46.1,18.4c-18.6,0-33.7-6-45.2-18
		C838.2,229.1,832.5,213.8,832.5,195.2z M859,193.8c0,12.8,3.3,23.4,9.8,31.6c6.5,8.2,15.4,12.3,26.5,12.3
		c11.6,0,20.6-3.9,27.1-11.7s9.7-18.4,9.7-31.8c0-13.8-3.1-24.7-9.4-32.6c-6.2-8-15.1-11.9-26.5-11.9c-11.5,0-20.6,4.2-27.2,12.5
		C862.3,170.4,859,181,859,193.8z"/>
	<path class="st6" d="M1084,256.8h-32.4l-41.4-55.8c-0.9-1.3-2.1-3.4-3.4-6.2h-0.4v61.9h-25.2V130.3h25.2v59.8h0.4
		c0.7-1.6,1.9-3.7,3.5-6.4l39.6-53.4h30.3l-48.4,60.4L1084,256.8z"/>
</g>
<g>
	<path class="st7" d="M411.9,393.2h-4.2v-13.3h-29.3v13.3h-4.2V375h3.1c2.8-6.3,5.2-13.6,7.1-21.9s2.9-15.8,3.1-22.6h18.8V375h5.5
		V393.2z M402,375v-39.5h-10.5c-0.2,5.2-1.3,11.8-3.1,19.8c-1.8,7.9-3.8,14.5-6.1,19.7H402z"/>
	<path class="st7" d="M416.6,362.7c0-5.9,1.3-10.5,3.9-13.9s6.2-5.1,10.7-5.1c4.2,0,7.6,1.6,10,4.9c2.4,3.2,3.7,7.7,3.7,13.5
		c0,5.6-1.3,10.1-3.9,13.5c-2.6,3.4-6.1,5.1-10.4,5.1c-4.2,0-7.6-1.7-10.1-5C417.9,372.5,416.6,368.1,416.6,362.7z M421.1,362.5
		c0,4.2,0.9,7.5,2.7,10s4.2,3.7,7.2,3.7c3.1,0,5.5-1.2,7.1-3.6c1.6-2.4,2.5-5.8,2.5-10.3c0-4.5-0.8-7.9-2.5-10.4
		c-1.7-2.5-4-3.7-7.1-3.7c-3,0-5.4,1.3-7.2,3.8C421.9,354.6,421.1,358.1,421.1,362.5z"/>
	<path class="st7" d="M472,378.3c-2.3,1.7-4.9,2.5-7.9,2.5c-4,0-7.3-1.6-9.9-4.8c-2.6-3.2-3.8-7.5-3.8-12.8c0-5.8,1.4-10.5,4.1-14
		c2.7-3.5,6.3-5.3,10.9-5.3c2.5,0,4.7,0.6,6.7,1.7v5.6c-2.2-1.9-4.5-2.8-6.9-2.8c-3,0-5.4,1.3-7.3,3.9c-1.9,2.6-2.9,6.1-2.9,10.4
		c0,4.1,0.9,7.4,2.7,9.9c1.8,2.5,4.2,3.7,7.3,3.7c2.6,0,5-1,7.2-3.1V378.3z"/>
	<path class="st7" d="M497.1,349.2h-8.8v30.7h-4.3v-30.7h-8.8v-4.6h21.9V349.2z"/>
	<path class="st7" d="M503.3,347.1c2.8-2.2,6.1-3.3,9.8-3.3c6.7,0,10.1,4.3,10.1,13v23.1h-4.4v-5.5h-0.2c-2,4.3-5,6.4-8.9,6.4
		c-2.8,0-5.1-0.9-6.7-2.8s-2.5-4.3-2.5-7.4c0-6.6,3.2-10.4,9.5-11.5l8.7-1.5c0-6.1-2-9.2-6-9.2c-3.5,0-6.7,1.5-9.4,4.4V347.1z
		 M511.7,363.2c-2.3,0.4-3.9,1-5,2s-1.6,2.7-1.6,5c0,1.8,0.5,3.2,1.6,4.3c1,1.1,2.4,1.6,4.1,1.6c2.3,0,4.3-1,5.8-3
		c1.5-2,2.3-4.5,2.3-7.6V362L511.7,363.2z"/>
	<path class="st7" d="M532,379.9v-35.3h12.4c2.8,0,5,0.8,6.7,2.4c1.7,1.6,2.5,3.7,2.5,6.3c0,4.6-1.9,7.4-5.6,8.4
		c4.4,0.7,6.7,3.4,6.7,8.2c0,2.8-0.9,5.2-2.7,7.2c-1.8,2-4.1,3-6.7,3H532z M536.4,349.3v10.1h7.1c3.8,0,5.7-1.8,5.7-5.3
		c0-3.2-1.7-4.7-5.1-4.7H536.4z M536.4,364.2v11.1h8.2c3.8,0,5.7-1.9,5.7-5.6c0-3.6-2.1-5.4-6.4-5.4H536.4z"/>
	<path class="st7" d="M586.2,379.9H580L567,363h-0.1v16.9h-4.4v-35.3h4.4v16.2h0.1l12.4-16.2h5.8l-13.6,17.1L586.2,379.9z"/>
	<path class="st7" d="M591.7,347.1c2.8-2.2,6.1-3.3,9.8-3.3c6.7,0,10.1,4.3,10.1,13v23.1h-4.4v-5.5H607c-2,4.3-5,6.4-8.9,6.4
		c-2.8,0-5.1-0.9-6.7-2.8s-2.5-4.3-2.5-7.4c0-6.6,3.2-10.4,9.5-11.5l8.7-1.5c0-6.1-2-9.2-6-9.2c-3.5,0-6.7,1.5-9.4,4.4V347.1z
		 M600.1,363.2c-2.3,0.4-3.9,1-5,2s-1.6,2.7-1.6,5c0,1.8,0.5,3.2,1.6,4.3c1,1.1,2.4,1.6,4.1,1.6c2.3,0,4.3-1,5.8-3
		c1.5-2,2.3-4.5,2.3-7.6V362L600.1,363.2z"/>
	<path class="st7" d="M668.3,392.8h-3.7v-12.9h-24.3v-35.3h4.4v30.7h15.1v-30.7h4.4v30.7h4.2V392.8z"/>
	<path class="st7" d="M674.8,379.9v-35.3h12.4c2.8,0,5,0.8,6.7,2.4c1.7,1.6,2.5,3.7,2.5,6.3c0,4.6-1.9,7.4-5.6,8.4
		c4.4,0.7,6.7,3.4,6.7,8.2c0,2.8-0.9,5.2-2.7,7.2s-4.1,3-6.7,3H674.8z M679.1,349.3v10.1h7.1c3.8,0,5.7-1.8,5.7-5.3
		c0-3.2-1.7-4.7-5.1-4.7H679.1z M679.1,364.2v11.1h8.2c3.8,0,5.7-1.9,5.7-5.6c0-3.6-2.1-5.4-6.4-5.4H679.1z"/>
	<path class="st7" d="M728.4,363.6h-20.5c0.1,4.1,1,7.2,2.7,9.4c1.7,2.2,4,3.2,6.8,3.2c3.3,0,6.3-1.3,9-4v5.1
		c-2.6,2.3-5.9,3.5-10.1,3.5c-4.1,0-7.3-1.6-9.6-4.9c-2.3-3.3-3.5-7.8-3.5-13.5c0-5.4,1.3-9.8,3.8-13.3c2.5-3.5,5.7-5.3,9.4-5.3
		c3.7,0,6.7,1.5,8.7,4.5s3.1,7.1,3.1,12.4V363.6z M723.8,358.9c0-3.3-0.6-5.9-1.9-7.7c-1.3-1.9-3.1-2.8-5.4-2.8
		c-2.2,0-4.1,1-5.6,2.9s-2.6,4.5-2.9,7.6H723.8z"/>
	<path class="st7" d="M753.5,349.2h-8.8v30.7h-4.3v-30.7h-8.8v-4.6h21.9V349.2z"/>
	<path class="st7" d="M757.1,362.7c0-5.9,1.3-10.5,3.9-13.9s6.2-5.1,10.7-5.1c4.2,0,7.6,1.6,10,4.9c2.4,3.2,3.7,7.7,3.7,13.5
		c0,5.6-1.3,10.1-3.9,13.5s-6.1,5.1-10.4,5.1c-4.2,0-7.6-1.7-10.1-5C758.4,372.5,757.1,368.1,757.1,362.7z M761.5,362.5
		c0,4.2,0.9,7.5,2.7,10s4.2,3.7,7.2,3.7c3.1,0,5.5-1.2,7.1-3.6c1.6-2.4,2.5-5.8,2.5-10.3c0-4.5-0.8-7.9-2.5-10.4
		c-1.7-2.5-4-3.7-7.1-3.7c-3,0-5.4,1.3-7.2,3.8C762.4,354.6,761.5,358.1,761.5,362.5z"/>
	<path class="st7" d="M792.9,379.9v-35.3h12.4c2.8,0,5,0.8,6.7,2.4c1.7,1.6,2.5,3.7,2.5,6.3c0,4.6-1.9,7.4-5.6,8.4
		c4.4,0.7,6.7,3.4,6.7,8.2c0,2.8-0.9,5.2-2.7,7.2s-4.1,3-6.7,3H792.9z M797.2,349.3v10.1h7.1c3.8,0,5.7-1.8,5.7-5.3
		c0-3.2-1.7-4.7-5.1-4.7H797.2z M797.2,364.2v11.1h8.2c3.8,0,5.7-1.9,5.7-5.6c0-3.6-2.1-5.4-6.4-5.4H797.2z"/>
	<path class="st7" d="M843.2,379.9v-35.3h12.4c2.8,0,5,0.8,6.7,2.4c1.7,1.6,2.5,3.7,2.5,6.3c0,4.6-1.9,7.4-5.6,8.4
		c4.4,0.7,6.7,3.4,6.7,8.2c0,2.8-0.9,5.2-2.7,7.2s-4.1,3-6.7,3H843.2z M847.6,349.3v10.1h7.1c3.8,0,5.7-1.8,5.7-5.3
		c0-3.2-1.7-4.7-5.1-4.7H847.6z M847.6,364.2v11.1h8.2c3.8,0,5.7-1.9,5.7-5.6c0-3.6-2.1-5.4-6.4-5.4H847.6z"/>
	<path class="st7" d="M922,379.9h-6.3l-15.9-22.7c-0.6-0.8-0.9-1.4-1.1-1.6h-0.1v24.3h-4.4v-49.5h4.4v23.2h0.1
		c0.3-0.5,0.6-1.1,1.1-1.6l15.4-21.6h5.5l-17.6,23.7L922,379.9z"/>
	<path class="st7" d="M950.8,379.9h-3.9v-28.5l-1.9,4.1l-13.6,24.4h-4.6v-35.3h4v28.2c0.3-1,0.8-2.1,1.4-3.4l14-24.8h4.5V379.9z"/>
	<path class="st7" d="M964.7,374.8v21.4h-4.4v-51.6h4.4v6.2h0.1c2.3-4.7,5.6-7.1,10-7.1c3.7,0,6.6,1.6,8.7,4.7
		c2.1,3.1,3.2,7.4,3.2,12.7c0,6-1.2,10.7-3.6,14.2c-2.4,3.5-5.6,5.3-9.6,5.3c-3.8,0-6.7-2-8.7-6H964.7z M964.7,365.6
		c0,2.9,0.8,5.4,2.4,7.5c1.6,2.1,3.6,3.1,6,3.1c2.8,0,5.1-1.3,6.7-4c1.6-2.7,2.4-6.4,2.4-11.2c0-3.9-0.8-7-2.3-9.3
		c-1.5-2.3-3.6-3.4-6.1-3.4c-2.7,0-4.9,1.2-6.6,3.5c-1.7,2.3-2.6,5.2-2.6,8.7V365.6z"/>
	<path class="st7" d="M992.3,362.7c0-5.9,1.3-10.5,3.9-13.9s6.2-5.1,10.7-5.1c4.2,0,7.6,1.6,10,4.9c2.4,3.2,3.7,7.7,3.7,13.5
		c0,5.6-1.3,10.1-3.9,13.5s-6.1,5.1-10.4,5.1c-4.2,0-7.6-1.7-10.1-5C993.5,372.5,992.3,368.1,992.3,362.7z M996.7,362.5
		c0,4.2,0.9,7.5,2.7,10s4.2,3.7,7.2,3.7c3.1,0,5.5-1.2,7.1-3.6c1.6-2.4,2.5-5.8,2.5-10.3c0-4.5-0.8-7.9-2.5-10.4
		c-1.7-2.5-4-3.7-7.1-3.7c-3,0-5.4,1.3-7.2,3.8C997.6,354.6,996.7,358.1,996.7,362.5z"/>
	<path class="st7" d="M1028,379.9v-35.3h12.4c2.8,0,5,0.8,6.7,2.4c1.7,1.6,2.5,3.7,2.5,6.3c0,4.6-1.9,7.4-5.6,8.4
		c4.4,0.7,6.7,3.4,6.7,8.2c0,2.8-0.9,5.2-2.7,7.2s-4.1,3-6.7,3H1028z M1032.4,349.3v10.1h7.1c3.8,0,5.7-1.8,5.7-5.3
		c0-3.2-1.7-4.7-5.1-4.7H1032.4z M1032.4,364.2v11.1h8.2c3.8,0,5.7-1.9,5.7-5.6c0-3.6-2.1-5.4-6.4-5.4H1032.4z"/>
	<path class="st7" d="M1081.6,363.6h-20.5c0.1,4.1,1,7.2,2.7,9.4c1.7,2.2,4,3.2,6.8,3.2c3.3,0,6.3-1.3,9-4v5.1
		c-2.6,2.3-5.9,3.5-10.1,3.5c-4.1,0-7.3-1.6-9.6-4.9c-2.3-3.3-3.5-7.8-3.5-13.5c0-5.4,1.3-9.8,3.8-13.3c2.5-3.5,5.7-5.3,9.4-5.3
		c3.7,0,6.7,1.5,8.7,4.5s3.1,7.1,3.1,12.4V363.6z M1077.1,358.9c0-3.3-0.6-5.9-1.9-7.7c-1.3-1.9-3.1-2.8-5.4-2.8
		c-2.2,0-4.1,1-5.6,2.9s-2.6,4.5-2.9,7.6H1077.1z"/>
</g>
<path class="st8" d="M230.4,414.2l-2.2,29.1c0,0.2-0.1,0.8-0.6,1.2c-0.3,0.2-0.5,0.3-0.7,0.4c-0.2,0-0.5,0.1-0.8,0.1
	c-0.3,0-0.5,0-0.6,0c-0.4,0-1.1,0-2.5,0.1c-0.2,0-0.7,0.1-1.2,0.6c-0.5,0.4-0.5,1-0.5,1.1c-3.6,16.4-7.1,32.8-10.7,49.1
	c-0.1,0.5-1.1,0.9-2.2,0.8c-22.2-0.6-44.3-1.2-66.5-1.8c-7.7,1-13.2,1.7-14.5,1.9c-0.2,0-0.8,0.1-1.4-0.1c0,0-1.2-0.1-1.4-1.1
	c-3.1-14.5-6.1-28.9-9.2-43.4c-0.3-1.5-0.6-3-0.9-4.5c-0.1-0.3-0.3-0.7-0.7-1.1c-0.9-1-3-1.2-3-1.2c-4.2-0.3-7.7,1-8.9-0.5
	c-0.2-0.2-0.4-0.6-0.4-1.4c0.1-7.5,0.3-15,0.4-22.5c0-0.8,0.5-1.4,1.2-1.4l125.5-7.1C229.7,412.5,230.5,413.3,230.4,414.2z"/>
<line id="_x31__00000146474809481629299790000007673406355066487168_" class="st8" x1="109.7" y1="445.5" x2="225.3" y2="445.1"/>
<g>
</g>
<g>
</g>
<g>
</g>
<g>
</g>
<g>
</g>
<g>
</g>
<g>
</g>
<g>
</g>
<g>
</g>
<g>
</g>
<g>
</g>
<g>
</g>
<g>
</g>
<g>
</g>
<g>
</g>
</svg>
