<?xml version="1.0" encoding="utf-8"?>
<!-- Generator: Adobe Illustrator 26.0.3, SVG Export Plug-In . SVG Version: 6.00 Build 0)  -->
<svg version="1.1" id="Слой_1" xmlns="http://www.w3.org/2000/svg" xmlns:xlink="http://www.w3.org/1999/xlink" x="0px" y="0px"
	 viewBox="0 0 16 16" style="enable-background:new 0 0 16 16;" xml:space="preserve">
<style type="text/css">
	.st0{fill:none;stroke:#000000;stroke-width:0.5;stroke-miterlimit:10;}
</style>
<g id="Слой_2_00000164507969986596218930000004890641867335005873_">
</g>
<g id="Слой_1_00000178916647863509812060000002925992444164265859_">
	<g>
		<path class="st0" d="M4,9.9c-0.3-0.5-0.2-1-0.2-1s0.6,0.1,1,0.5c0.1,0.1,0.1,0.1,0.1,0.2c0.3,0.4,0.3,1,0.3,1.1c0,0,0,0,0,0
			S4.4,10.5,4,9.9z"/>
		<path class="st0" d="M5.6,12.4c0,0,0-0.1,0-0.1c0,0,0,0,0-0.1c0-0.2,0-0.3,0-0.4c0-0.3,0.1-0.6,0.1-1.1c0-0.1,0-0.2,0.1-0.3
			c0-0.1,0.1-0.3,0.1-0.4c0.2-0.7,0.3-1,1-2.6"/>
		<path class="st0" d="M10.8,1.8c0,0.2,0,0.4-0.1,0.6c0,0.1-0.1,0.3-0.3,0.6c-0.1,0.1-0.1,0.2-0.2,0.3c-0.1,0-0.1,0.1-0.2,0.1
			c-0.1,0-0.3,0.2-0.8,0.4C9.2,3.9,9.1,4,9,4C8.8,3.7,8.4,3.5,8,3.5c-0.1,0-0.1,0-0.2,0c0,0,0,0,0,0c0-0.1-0.1-0.1-0.1-0.2
			c0,0,0,0,0,0c0-0.1,0-0.1-0.1-0.1c0,0,0,0,0,0c0,0,0,0,0,0c0,0,0,0,0,0c0,0,0,0,0,0c0,0,0-0.1-0.1-0.2c0,0,0,0,0,0c0,0,0,0,0,0
			c0,0,0,0,0,0c0,0,0-0.1,0-0.1c0,0,0-0.1,0-0.1c0,0,0,0,0,0c0-0.1,0-0.1,0-0.1c0,0,0,0,0,0c0,0,0,0,0,0c0,0,0,0,0,0
			c0-0.1-0.1-0.2-0.1-0.2l0,0c0-0.1,0-0.1,0-0.1c0-0.1-0.1-0.3,0-0.6C7.3,1.2,7.4,1,7.4,1c0,0,0.1-0.1,0.2-0.2
			c0.1-0.1,0.2-0.2,0.5-0.3c0.2-0.1,0.5-0.2,1-0.2c0.4,0,1,0,1.4,0.5C10.8,1.1,10.8,1.6,10.8,1.8z"/>
		<path class="st0" d="M6.7,4.8C6.7,4.8,6.7,4.9,6.7,4.8c-0.1,0-0.1,0-0.1,0c-0.1,0-0.2,0-0.5,0c-0.3,0-0.4,0-0.5,0
			c-0.1,0-0.2,0-0.3,0C5.1,4.8,4.8,4.7,4.6,4.5C4,4.1,3.9,3.4,4,2.8c0-0.1,0.1-0.9,0.8-1.3c0.4-0.2,0.8-0.2,1.1-0.2
			c0.4,0,0.7,0.2,0.8,0.2c0.1,0,0.2,0.1,0.3,0.3C7.2,2,7.3,2.2,7.3,2.2c0,0,0,0,0,0.1l0,0c0,0.1,0,0.1,0.1,0.2c0,0,0,0,0,0
			c0,0,0,0,0,0c0,0,0,0,0,0c0,0,0,0,0,0c0,0.1,0,0.1,0,0.1c0,0,0,0,0,0c0,0,0,0,0,0.1c0,0,0,0.1,0,0.1c0,0,0,0,0,0c0,0,0,0,0,0
			c0,0,0,0,0,0c0.1,0.2,0.1,0.2,0.1,0.2c0,0,0,0,0,0c0,0,0,0,0,0s0,0,0,0c0,0,0,0,0,0c0,0,0,0.1,0.1,0.1c0,0,0,0,0,0
			c0,0.1,0.1,0.1,0.1,0.2C7.2,3.6,6.7,4.2,6.7,4.8z"/>
		<path class="st0" d="M7.5,6C7.5,6,7.5,6,7.5,6C7.2,6.3,7,7,7,7c0,0.1-0.1,0.2-0.1,0.4l0,0c0,0,0,0,0,0l0,0c0,0,0,0,0,0
			C6.8,7.5,6.7,7.6,6.6,7.7C6.2,8,5.8,8.3,5.3,8.3c-0.6,0-1.2-0.4-1.4-0.9C3.8,7.3,3.6,6.9,3.7,6.5c0-0.4,0.3-0.7,0.4-0.9
			C4.2,5.4,4.4,5.2,4.8,5C5,4.9,5.1,4.9,5.3,4.9c0.1,0,0.2,0,0.3,0c0.1,0,0.2,0,0.5,0c0.3,0,0.4,0,0.5,0c0,0,0.1,0,0.1,0
			c0,0,0,0.1,0,0.1C6.8,5.4,7.1,5.8,7.5,6C7.5,6,7.5,6,7.5,6z"/>
		<path class="st0" d="M10.4,8.3c-0.1,0.2-0.4,0.8-1,1.1C8.7,9.6,8,9.5,7.5,9C7,8.6,7,8.1,6.9,7.9c0-0.2,0-0.4,0-0.5l0,0
			c0,0,0,0,0,0l0,0C6.9,7.2,7,7.1,7,7c0,0,0.2-0.7,0.5-1c0,0,0,0,0,0C7.7,6.1,7.8,6.1,8,6.1c0.4,0,0.8-0.2,1-0.5
			C9.1,5.7,9.2,5.8,9.6,6c0.6,0.4,0.5,0.4,0.7,0.4l0,0c0.1,0.1,0.2,0.3,0.3,0.4C10.8,7.5,10.5,8.1,10.4,8.3z"/>
		<path class="st0" d="M12.5,6.2c-0.4,0.4-0.9,0.4-1.2,0.4c-0.2,0-0.6,0-1-0.2l0,0C10.1,6.4,10.2,6.4,9.6,6C9.2,5.8,9.1,5.7,9,5.6
			c0,0,0,0,0,0c0.1-0.2,0.2-0.5,0.2-0.7C9.3,4.5,9.2,4.3,9,4c0,0,0,0,0,0C9.1,4,9.2,3.9,9.3,3.8c0.5-0.3,0.7-0.4,0.8-0.4
			c0,0,0.1,0,0.2-0.1c0.4-0.1,1.3-0.4,2,0.1c0.5,0.4,0.6,0.9,0.6,1C13.1,5,13,5.8,12.5,6.2z"/>
		<path class="st0" d="M9.3,4.8c0,0.3-0.1,0.5-0.2,0.7c0,0,0,0,0,0C8.8,5.9,8.4,6.1,8,6.1c-0.2,0-0.3,0-0.5-0.1c0,0,0,0,0,0
			C7.1,5.8,6.8,5.4,6.7,5c0,0,0-0.1,0-0.1c0,0,0,0,0-0.1c0-0.6,0.5-1.2,1.1-1.3c0,0,0,0,0,0c0.1,0,0.1,0,0.2,0c0.4,0,0.8,0.2,1,0.5
			c0,0,0,0,0,0C9.2,4.3,9.3,4.5,9.3,4.8z"/>
		<path class="st0" d="M8.3,12.3l-0.1,1.2c0,0,0,0,0,0c0,0,0,0,0,0c0,0,0,0,0,0c0,0,0,0,0,0c0,0,0,0-0.1,0c0,0,0,0,0,0c0,0,0,0,0,0
			c-0.1,0.7-0.3,1.3-0.4,2c0,0,0,0-0.1,0c-0.9,0-1.8,0-2.7-0.1c-0.3,0-0.5,0.1-0.6,0.1c0,0,0,0-0.1,0c0,0,0,0-0.1,0
			c-0.1-0.6-0.3-1.2-0.4-1.8c0-0.1,0-0.1,0-0.2c0,0,0,0,0,0c0,0-0.1,0-0.1,0c-0.2,0-0.3,0-0.4,0c0,0,0,0,0-0.1c0-0.3,0-0.6,0-0.9
			c0,0,0-0.1,0-0.1l2.5-0.1L8.3,12.3C8.3,12.3,8.3,12.3,8.3,12.3z"/>
		<line id="_x31__00000005226651360065121240000005877675045792040359_" class="st0" x1="3.4" y1="13.6" x2="8.1" y2="13.6"/>
		<path class="st0" d="M5.3,10.7c0,0,0.1,0.1,0.3,0.1c0.1,0,0.2,0.1,0.2,0.1"/>
	</g>
</g>
</svg>
