<?xml version="1.0" encoding="utf-8"?>
<!-- Generator: Adobe Illustrator 26.0.3, SVG Export Plug-In . SVG Version: 6.00 Build 0)  -->
<svg version="1.1" id="Слой_1" xmlns="http://www.w3.org/2000/svg" xmlns:xlink="http://www.w3.org/1999/xlink" x="0px" y="0px"
	 viewBox="0 0 16 16" style="enable-background:new 0 0 16 16;" xml:space="preserve">
<style type="text/css">
	.st0{fill-rule:evenodd;clip-rule:evenodd;}
</style>
<path class="st0" d="M8,0c0.4,0,0.7,0.3,0.7,0.7v6.7h6.7C15.7,7.3,16,7.6,16,8c0,0.4-0.3,0.7-0.7,0.7H8.7v6.7C8.7,15.7,8.4,16,8,16
	c-0.4,0-0.7-0.3-0.7-0.7V8.7H0.7C0.3,8.7,0,8.4,0,8c0-0.4,0.3-0.7,0.7-0.7h6.7V0.7C7.3,0.3,7.6,0,8,0z"/>
</svg>
