<?xml version="1.0" encoding="utf-8"?>
<!-- Generator: Adobe Illustrator 26.0.3, SVG Export Plug-In . SVG Version: 6.00 Build 0)  -->
<!DOCTYPE svg PUBLIC "-//W3C//DTD SVG 1.1//EN" "http://www.w3.org/Graphics/SVG/1.1/DTD/svg11.dtd" [
	<!ENTITY ns_extend "http://ns.adobe.com/Extensibility/1.0/">
	<!ENTITY ns_ai "http://ns.adobe.com/AdobeIllustrator/10.0/">
	<!ENTITY ns_graphs "http://ns.adobe.com/Graphs/1.0/">
	<!ENTITY ns_vars "http://ns.adobe.com/Variables/1.0/">
	<!ENTITY ns_imrep "http://ns.adobe.com/ImageReplacement/1.0/">
	<!ENTITY ns_sfw "http://ns.adobe.com/SaveForWeb/1.0/">
	<!ENTITY ns_custom "http://ns.adobe.com/GenericCustomNamespace/1.0/">
	<!ENTITY ns_adobe_xpath "http://ns.adobe.com/XPath/1.0/">
]>
<svg version="1.1" id="Слой_1" xmlns:x="&ns_extend;" xmlns:i="&ns_ai;" xmlns:graph="&ns_graphs;"
	 xmlns="http://www.w3.org/2000/svg" xmlns:xlink="http://www.w3.org/1999/xlink" x="0px" y="0px" viewBox="0 0 40 40"
	 style="enable-background:new 0 0 40 40;" xml:space="preserve">
<style type="text/css">
	.st0{fill:#FFFFF0;}
	.st1{fill:#7FEBC1;stroke:#7FEBC1;stroke-width:0.75;stroke-miterlimit:10;}
	.st2{fill:none;stroke:#7FEBC1;stroke-width:0.75;stroke-miterlimit:10;}
	.st3{fill:#EB8AB3;stroke:#000000;stroke-width:5.000000e-02;stroke-miterlimit:10;}
	.st4{fill:#DDFFA3;stroke:#000000;stroke-width:5.000000e-02;stroke-miterlimit:10;}
	.st5{fill:#B37669;stroke:#000000;stroke-width:5.000000e-02;stroke-miterlimit:10;}
</style>
<metadata>
	<sfw  xmlns="&ns_sfw;">
		<slices></slices>
		<sliceSourceBounds  bottomLeftOrigin="true" height="16383" width="16383" x="-7848.4" y="-8240.4"></sliceSourceBounds>
	</sfw>
</metadata>
<path class="st0" d="M37.5,40h-35C1.1,40,0,38.9,0,37.5v-35C0,1.1,1.1,0,2.5,0h35C38.9,0,40,1.1,40,2.5v35C40,38.9,38.9,40,37.5,40z
	"/>
<path class="st1" d="M12,24.6c-0.8-1.2-0.4-2.3-0.4-2.3s1.4,0.3,2.3,1.2c0.1,0.1,0.2,0.3,0.3,0.4c0.7,1,0.8,2.4,0.8,2.6c0,0,0,0,0,0
	S13,26,12,24.6z"/>
<path class="st2" d="M15.9,30.9c0-0.1,0-0.3,0-0.4c0-0.5,0-0.8,0.1-1c0-0.7,0.1-1.6,0.3-2.8c0-0.3,0.1-0.6,0.2-0.8
	c0.1-0.3,0.1-0.6,0.2-1c0.5-1.9,0.8-2.8,3.1-8.1l0,0"/>
<path class="st3" d="M21.9,1.9c-0.7,0.3-1,0.5-1.2,0.7c-0.2,0.2-0.3,0.4-0.4,0.5c-0.1,0.1-0.4,0.6-0.5,1.4c-0.1,0.6,0,1.2,0.1,1.5
	C19.9,6.3,20,6.7,20.1,7c0,0,0.1,0.2,0.1,0.4c0,0.1,0.1,0.2,0.1,0.3c0.3,0.7,0.3,0.8,0.3,0.8c0.1,0.2,0.1,0.2,0.2,0.5
	c0.1,0.3,0.2,0.5,0.4,0.8c0.2,0.3,0.3,0.3,0.3,0.3c0.2,0,0.3-0.4,0.4-0.4c0,0,0,0.1,0.1,0.1c0.1,0,0.1,0,0.1,0.1
	c0.1,0,0.1,0.1,0.1,0.1c0.1,0.1,0.2,0.1,0.2,0.1c0,0-0.2,0.1-0.2,0.1c0,0,0,0,0.1,0c0.3,0.1,0.3,0.1,0.3,0.1c0.2,0.1,0.2,0,0.3,0.1
	c0.2,0.1,0.2,0.1,0.3,0.2c0.1,0,0.2,0.1,0.8,0c0.5-0.1,0.8-0.2,1-0.3c0.2-0.1,0.5-0.2,0.9-0.6C26.3,9.5,27,9,27.5,8.1
	c0.4-0.7,0.6-1.3,0.7-1.5c0.1-0.3,0.2-0.8,0.2-1.3c0-0.5,0-1.7-0.8-2.6c-0.9-1.1-2.3-1.1-3.3-1.1C23.1,1.5,22.3,1.8,21.9,1.9z"/>
<path class="st3" d="M12,7.6c0.1-0.3,0.4-2.1,1.9-3.1c1-0.6,2-0.5,2.6-0.4c1,0.1,1.6,0.4,2,0.6c0.2,0.1,0.5,0.3,0.8,0.6
	c0.3,0.4,0.4,0.7,0.5,1C20,6.5,20,6.6,20.1,7c0.1,0.2,0.1,0.2,0.2,0.5c0.2,0.5,0.2,0.6,0.3,0.8c0,0,0,0,0.1,0.1
	c0.2,0.4,0.2,0.5,0.3,0.7c0.2,0.4,0.3,0.6,0.2,0.7c-0.1,0.1-0.3,0-0.7,0.1c-0.3,0.1-0.4,0.4-0.8,0.8c-0.2,0.2-0.3,0.4-0.3,0.6
	c-0.3,0.8-0.3,1-0.6,1.3c-0.2,0.2-0.4,0.2-0.6,0.2c-0.3,0.1-0.5,0-1.1,0c-0.2,0-0.1,0-0.5-0.1c-0.4-0.1-0.7-0.1-0.8-0.1
	c-0.3,0-1.6-0.3-2.5-1C12.1,10.8,11.8,8.9,12,7.6z"/>
<path class="st3" d="M12.2,14.2c-0.3,0.4-0.9,1.1-1,2.2c-0.1,1.1,0.3,1.9,0.4,2.1c0.6,1.2,1.9,2.2,3.4,2.2c1.4,0,2.3-0.7,3.2-1.4
	c1.7-1.3,2.3-3,2.2-3.7c0-0.4-0.1-0.7-0.1-0.7c0-0.1-0.1-0.3-0.1-0.5c-0.1-0.7,0.2-0.9,0.1-1.3c-0.1-0.2-0.5-0.3-1.2-0.6
	c-0.5-0.1-0.8-0.2-0.9-0.2c-0.2,0-0.4,0-1.2,0c-0.6,0-0.9,0-1.1,0c-0.5,0-1.2,0.1-1.9,0.4C13,13.2,12.4,13.9,12.2,14.2z"/>
<path class="st3" d="M19,19.9c0.1,0.4,0.3,1.7,1.4,2.6c1.2,1.1,3,1.4,4.5,0.8c1.5-0.6,2.1-2,2.4-2.5c0.2-0.5,1-2.1,0.3-3.7
	c-0.2-0.5-0.7-1-1.7-2c-0.5-0.5-1-1-1.7-1c0,0-0.2,0-0.3,0c-0.7,0.1-0.7,0.1-1,0.1c-0.4,0-0.6-0.1-0.8,0c-0.2,0.1-0.2,0.2-0.3,0.4
	c-0.2,0-0.5,0.1-0.8,0.3c0,0-0.2,0.1-0.3,0.1c-0.9,0.4-1.5,2.6-1.5,2.6C19.1,18.1,18.9,18.9,19,19.9z"/>
<path class="st3" d="M24,14.1c0.2,0.4,0.5,0.5,1.4,1.1c1.4,0.9,1.2,0.9,1.6,1.1c1.1,0.5,2.1,0.5,2.4,0.4c0.7,0,1.9-0.1,2.9-1
	c1.2-1.1,1.4-2.9,1.1-4.2c-0.1-0.4-0.4-1.6-1.5-2.4c-2.1-1.6-4.9-0.3-5.2-0.2C26.5,9,26,9.3,24.8,10c-0.8,0.4-0.9,0.6-1.1,0.8
	c-0.1,0.2-0.2,0.4,0,2C23.9,13.9,23.9,14,24,14.1z"/>
<circle class="st4" cx="21.6" cy="12.4" r="3.1"/>
<path class="st2" d="M15,26.5c0,0,0.3,0.2,0.6,0.3c0.3,0.1,0.6,0.1,0.6,0.1"/>
<path class="st5" d="M22.2,30.3L22,33c0,0,0,0.1-0.1,0.1c0,0,0,0-0.1,0c0,0,0,0-0.1,0c0,0-0.1,0-0.1,0c0,0-0.1,0-0.2,0
	c0,0-0.1,0-0.1,0.1c0,0,0,0.1-0.1,0.1c-0.3,1.5-0.7,3-1,4.6c0,0-0.1,0.1-0.2,0.1c-2.1-0.1-4.1-0.1-6.2-0.2c-0.7,0.1-1.2,0.2-1.3,0.2
	c0,0-0.1,0-0.1,0c0,0-0.1,0-0.1-0.1c-0.3-1.3-0.6-2.7-0.9-4c0-0.1-0.1-0.3-0.1-0.4c0,0,0-0.1-0.1-0.1c-0.1-0.1-0.3-0.1-0.3-0.1
	c-0.4,0-0.7,0.1-0.8,0c0,0,0-0.1,0-0.1c0-0.7,0-1.4,0-2.1c0-0.1,0.1-0.1,0.1-0.1L22,30.2C22.1,30.2,22.2,30.2,22.2,30.3z"/>
<line id="_x31__00000044140779080058175850000018424656080393928585_" class="st5" x1="11" y1="33.2" x2="21.7" y2="33.2"/>
</svg>
